<?xml version="1.0" encoding="UTF-8"?><svg id="Laag_2" xmlns="http://www.w3.org/2000/svg" viewBox="0 0 341.65 217.21"><g id="Laag_1"><path d="M225.54,55.86c-2.01.93-3.44,2.56-5.07,4l-4.28,3.81c-.23.2-.73.23-.92.15-.24-.09-.49-.52-.41-.96.83-4.24,2.76-8.05,5.72-11.27,1.83-1.99,4.22-3.15,6.35-4.69,4.97-3.58,3.12-7.53,4.19-7.9.43-.15.97.25,1.31.66,2.17,2.65,2.88,6.05,3,9.47.2,6.02-2.88,11.28-8.18,14.12-2.53,1.36-5.14,2.7-8.13,2.68,1.01-3.45,5.54-5.88,6.43-10.07Z" fill="#95c121"/><path d="M211.15,29.87c-1.62,9.28-10.05,9.94-17.45,14.53-.76.47-1.29,1.32-2.53,1.07,0-6.69,3.13-12.89,8.6-16.84,4.34-3.14,8.92-5.78,14.44-7.45-1.28,3.12-2.52,5.63-3.06,8.68Z" fill="#95c121"/><path d="M161.51,93.03c-5.32-10.72-9.71-24.24-3.24-35.04,1.39-1.92,3.29-1.54,5.35-1.96,8.74-1.94,12.46-12.75,8.21-20.32-10.05,5.21-8.46,18.03-13.85,15.19-3.69-2.51,8.91-21.88,12.52-27.09.9-1.29,2.13-2.13,3.34-3.11,5.86-4.78,9.47-13.12,7.09-20.44-.18-.16-.69-.21-.99,0-5.57,3.84-13.9,8.04-13.01,16.05.47,7.96-5.36,14.31-9.61,20.54-5.96,5.06-.44-8.59-6.92-16.19-3.69-5.14-10.65-10.18-10.02-7.1.74,3.62.96,7.06.87,10.79-.03,15.88,17.03,7.68,10.67,32.26-.97,4.83-1.41,9.51-1.62,14.56-5.09-1.4-8.74-5.13-10.05-10.11,2.35,1.02,5.78,6.55,6.03,4.73.54-3.92-.9-8.02-3.8-10.78-4.77-4.56-13.23-5-16.85-16.88-1.39-4.57-1.85-9.33.09-13.79.38-.86.89-1.65.62-2.64-10.43,4.52-16.05,15.61-8.83,25.49,1.81,2.65,5.38,7.34,6.86,6.44,1.37-.84-3.32-9.44-2.47-13.18,3.62,3.92,5.76,8.3,7.18,13.07,5.71,15.86,20.16,15.95,25.79,39.06-6.74-3.9-21.74-7.21-23.12-16.46,3.11,1.37,5.86,5.49,6.96,5.11.7-.24,1.81-8.41-4.67-13.2-4.14-2.77-8.21-4.61-10.94-9.19-2.98,18.34,6.37,26.08,21.21,33.58-10.16,2.63-22.08,2.94-27.05-6.84,4.14,1.9,7,5.5,11.94,5.69-7.2-17.81-16.02-8.64-24.84-19.97-.26-.38-.75-.89-1.42-.67,1.82,30.73,25.06,25.3,45.11,25.39,6.44.87,11.8,9.93,13.31,16.31,2.19,8.64-4.3,15.52-11.82,18.88h39.3c-19.83-7.31-17.18-29.58,4.91-29.7,18.25,2.94,36.04.92,42.14-19.48-4.05,2.45-7.26,4.99-11.66,5.7-9.37,1.27-19.1-1.06-24.8,8.73,4.41.82,9.55-1.5,14.28-.43-6.83,4.11-15.32,3.29-22.79,2.36,10.06-10.44,25.98-20.67,18.32-37.28-5.35,10.54-18.11,10.34-16.61,22.83-.07,1.51.57,5.95,2.63,2.57.99-.18,5.55-4.83,6.38-5.48-.07,3.25-2.79,5.42-4.45,7.83-7.53,8.4-20.27,12.3-27.43,21.14-8.12-16.59,3.06-29.14,17.53-36.43,12.45-5.81,21.31-14.29,17.54-29.37-5.4,10.39-18.84,10.66-18.86,23.5,3.72-.72,6.95-4.67,9.8-6.69-1.12,6.31-9.62,10.32-15.55,12.18-1.07-16.33,9.18-9.23,7.62-30.5-1.25-.07-1.66.75-2.31,1.33-1.92,1.72-4.19,2.73-6.34,4.1-7.78,4.83-1.99,11.13-1.1,18.07-.03,5.53-4.81,11.29-7.83,14.55-1.57,1.7-2.99,3.52-4.26,5.45l-4.49,6.84Z" fill="#95c121"/><path d="M205.93,115.83c-13.49,6.68-27.46.91-24.56-.88,4.27-2.63,8.98-3.21,14.26-3.89-4.29-1.28-8.73-.86-13.05.47-3.33,1.02,3.22-7.46,13.52-6.43,7.74.77,12.45,4.79,23.29-.19-3.32,5.14-8.32,8.37-13.47,10.92Z" fill="#008b3b"/><path d="M181.59,39.22l1.64-11.41c-2.16,3.09-3.75,10.21-4.9,10.38-.52.08-1-.23-1.17-.81-2.33-7.92.81-13.77,6.99-18.85,5.79-4.76,4.46-11.26,5.36-11.62.18-.07.69.09.81.41,4.45,11.22,6.38,17.56-2,27.75-2.72,3.3-7.23,7.68-6.72,4.15Z" fill="#008b3b"/><path d="M222.51,77.01c-3.1-.02-6.23,2.58-9.65,2.71.96-5.99,5.69-10.1,11.68-10.53,5.09-.04,9.28-2.53,12.21-6.64.1-.53,1.42-1.31,1.76-.77,2.14,14.24-11.91,22.69-25.53,22.32-.41-.66.38-1.33.89-1.6,3.06-1.59,5.91-3.06,8.64-5.47Z" fill="#008b3b"/><path d="M141.45,35.92c6.94,3.59,8.09,9.81,6.97,17.19-.07.49-.48.91-.86.88-.61-.05-1.77-3.87-7.77-6.36-6.33-2.62-10.12-8.42-9.74-15.26.21-3.7.93-7.31,3.19-10.28.2-.27.58-.49.79-.47,1.67.1-1.23,9.83,7.42,14.31Z" fill="#008b3b"/><path d="M110.95,64.09c-.51,1.95.49,4.03,1.78,5.61l3.02,3.68c1.41,1.72-2.15,1.44-7.22-3.88-9.92-10.39.12-27.56,2.11-26.73,1.12.47-.88,6.69,4.83,13.46,2.22,2.64,3.03,5.81,2.64,9.18-.2,1.73-.32,3.51-1.52,5-2.49-1.56-3.91-3.85-5.64-6.32Z" fill="#008b3b"/><path d="M214.23,46.33l-5.06,6.23c-1.29-7.37-.05-13.76,6.25-17.46,5.97-3.51,6.07-8.66,7.23-8.86,2.2-.39,6.42,12.66-3.19,20.24l-6.08,4.21c-.28-1.73.95-2.46.85-4.36Z" fill="#008b3b"/><path d="M159.85,25.43c-.34.55-1.15,1.13-1.59.83-1-5.32-4.63-8.12-6.98-12.49-1.47-2.73-.85-5.49,1.61-7.51,3.07-2.52,11.03-7.24,11.97-6.08.88,1.09-2.25,2.83-2.2,8.07l.06,6.37c.04,3.84-.82,7.46-2.86,10.81Z" fill="#008b3b"/><path d="M174.08,103.02c-2.31-3.14-2.51-7.4-.72-10.74,2.33-4.34,7.2-7.1,10.89-11.66.21-.26.33-.49.57-.56.3-.09.77.08.85.53.89,5.44-.42,10.76-3.67,15.24-2.12,2.78-4.52,5.03-7.91,7.2Z" fill="#008b3b"/><path d="M162.64,82.37c-2.54-2.7-5.24-8.72-3.78-11.98,1.89-4.24,6.4-7.25,9.61-11.82.18-.26.28-.49.5-.58.29-.11.76,0,.88.41,1.36,4.96,2.68,12.11-.11,16.57-1.82,2.78-3.97,5.08-7.09,7.41Z" fill="#008b3b"/><path d="M197.05,26.61c.07-3.07,1.21-5.91,2.87-8.51,2.34-3.66.89-6.44,1.4-10.22,4.29,4.17,6.43,12.11,1.12,15.39l-5.39,3.34Z" fill="#008b3b"/><path d="M156.5,115.8l-3.86-3.4-4.48-5.09c-4.24-4.81-10.19-7.38-16.69-7.41-4.06-.02-8.05.34-11.66,1.95-.42.24.49.86.79,1.04,2.01,1.21,4.04,3.1,5.81,4.88,6.14,6.15,14.45,9.85,23.6,8.49l-14.28-10.04c5.78,1.62,10.48,4.84,15.47,7.78l5.33,3.14c.46-.19.36-.99-.03-1.33Z" fill="#008b3b"/><path d="M177.93,66.62c0-.15.07-.31.15-.43,0,.14-.09.31-.15.43Z" fill="#008b3b"/><path d="M26.48,174.32c-.53.45-1.22.8-2.05,1.06-.84.26-1.81.39-2.91.39-1.47,0-2.69-.18-3.65-.55-.96-.36-1.58-.99-1.87-1.88-1.14-3.56-2.08-6.44-2.82-8.65-.74-2.21-1.31-4.14-1.72-5.8h-.31c-.12,2.39-.21,4.56-.28,6.53-.06,1.96-.1,3.88-.12,5.74-.02,1.86-.06,3.74-.12,5.65-.06,1.9-.15,4.01-.28,6.31-.53.2-1.23.37-2.08.52-.86.14-1.72.21-2.57.21-1.8,0-3.2-.28-4.2-.85-1-.57-1.5-1.6-1.5-3.1,0-1.25.06-3.09.18-5.49.12-2.41.28-5.07.46-7.98.18-2.91.38-5.91.58-8.98.2-3.08.39-5.91.55-8.5.33-.53,1.04-1.09,2.15-1.7,1.1-.61,2.66-.91,4.66-.91,2.17,0,3.86.33,5.09,1s2.12,1.75,2.7,3.25c.37.97.77,2.09,1.2,3.34.43,1.25.86,2.55,1.29,3.88.43,1.34.85,2.66,1.26,3.98.41,1.32.78,2.5,1.1,3.55h.31c.98-3.4,1.96-6.69,2.94-9.86.98-3.18,1.88-5.84,2.7-7.98.61-.32,1.4-.6,2.36-.82.96-.22,2.03-.33,3.22-.33,2,0,3.64.29,4.9.88,1.27.59,2,1.43,2.21,2.52.16.81.34,2.05.52,3.73.18,1.68.38,3.57.58,5.68.2,2.1.41,4.33.61,6.68.2,2.35.4,4.6.58,6.77.18,2.17.34,4.15.46,5.95.12,1.8.2,3.19.25,4.16-.7.4-1.42.7-2.18.88-.76.18-1.73.27-2.91.27-1.55,0-2.86-.26-3.92-.79-1.06-.53-1.63-1.56-1.72-3.1-.25-4.41-.4-8.38-.46-11.9-.06-3.52-.15-6.47-.28-8.86h-.31c-.41,1.58-1,3.56-1.78,5.95-.78,2.39-1.72,5.44-2.82,9.17Z" fill="#008b3b"/><path d="M55.41,183.85c-2.17,0-3.67-.36-4.51-1.09-.84-.73-1.26-2.04-1.26-3.95v-32.35c.49-.08,1.2-.19,2.15-.33.94-.14,1.88-.21,2.82-.21,2.04,0,3.51.34,4.41,1.03.9.69,1.35,2.02,1.35,4.01v32.35c-.45.12-1.14.24-2.08.36-.94.12-1.9.18-2.88.18Z" fill="#008b3b"/><path d="M114.25,177.48c0,1.26-.23,2.19-.67,2.79-.45.61-1.16,1.19-2.15,1.76-.57.32-1.29.64-2.15.94s-1.8.57-2.82.79c-1.02.22-2.09.39-3.22.52-1.12.12-2.24.18-3.34.18-2.94,0-5.7-.37-8.27-1.12-2.57-.75-4.81-1.91-6.71-3.49-1.9-1.58-3.4-3.59-4.51-6.04-1.1-2.45-1.66-5.37-1.66-8.77,0-3.2.55-6.01,1.66-8.44,1.1-2.43,2.61-4.47,4.54-6.13,1.92-1.66,4.17-2.91,6.74-3.76s5.35-1.27,8.34-1.27c3.88,0,6.96.61,9.22,1.82s3.4,2.81,3.4,4.8c0,1.05-.27,1.96-.8,2.73-.53.77-1.14,1.38-1.84,1.82-1.02-.61-2.31-1.19-3.86-1.76-1.55-.57-3.33-.85-5.33-.85-1.63,0-3.13.26-4.47.79-1.35.53-2.51,1.27-3.49,2.22-.98.95-1.74,2.1-2.27,3.46-.53,1.36-.8,2.86-.8,4.52,0,1.82.25,3.42.77,4.8.51,1.38,1.23,2.52,2.15,3.43s2,1.6,3.25,2.06c1.25.47,2.63.7,4.14.7.9,0,1.69-.08,2.36-.24.67-.16,1.2-.34,1.56-.55v-5.83h-6.56c-.25-.44-.48-1.03-.7-1.76-.23-.73-.34-1.5-.34-2.31,0-1.46.34-2.51,1.01-3.16.67-.65,1.54-.97,2.61-.97h10.36c1.23,0,2.18.33,2.85,1,.67.67,1.01,1.61,1.01,2.82v12.5Z" fill="#008b3b"/><path d="M142.63,175.72h-11.09c-.41,1.46-.77,2.81-1.07,4.07-.31,1.25-.6,2.43-.89,3.52-.57.2-1.17.37-1.81.52-.63.14-1.4.21-2.3.21-2.08,0-3.63-.35-4.63-1.06-1-.71-1.5-1.69-1.5-2.94,0-.57.08-1.13.25-1.7.16-.57.35-1.23.55-2,.29-1.09.68-2.46,1.2-4.1.51-1.64,1.07-3.4,1.69-5.28s1.27-3.8,1.96-5.77c.69-1.96,1.35-3.82,1.96-5.58s1.17-3.34,1.69-4.73c.51-1.4.91-2.46,1.2-3.19.69-.4,1.75-.79,3.16-1.15,1.41-.36,2.83-.55,4.26-.55,2.04,0,3.85.29,5.42.88,1.57.59,2.58,1.53,3.03,2.82.74,2.06,1.53,4.49,2.39,7.28.86,2.79,1.72,5.68,2.57,8.65.86,2.97,1.7,5.91,2.51,8.8.82,2.89,1.53,5.45,2.14,7.68-.49.57-1.23,1.02-2.21,1.37-.98.34-2.15.52-3.49.52-2,0-3.39-.32-4.17-.97-.78-.65-1.35-1.68-1.72-3.1l-1.1-4.19ZM137.18,155.51c-.57,1.66-1.21,3.5-1.9,5.52-.7,2.02-1.37,4.19-2.02,6.5h7.6c-.57-2.31-1.16-4.48-1.75-6.53-.59-2.04-1.11-3.87-1.56-5.49h-.37Z" fill="#008b3b"/><path d="M190.75,158.6c0,2.31-.6,4.36-1.81,6.16-1.21,1.8-2.81,3.29-4.81,4.46.78,1.05,1.56,2.06,2.36,3.04.8.97,1.54,1.9,2.24,2.79.7.89,1.32,1.72,1.87,2.49.55.77,1.01,1.46,1.38,2.06-.41,1.42-1.15,2.5-2.24,3.25-1.08.75-2.3,1.12-3.65,1.12-.9,0-1.68-.1-2.33-.3-.65-.2-1.23-.49-1.72-.85-.49-.36-.94-.81-1.35-1.34-.41-.53-.8-1.09-1.16-1.7l-5.21-8.32h-3.25v11.84c-.45.12-1.14.24-2.08.36-.94.12-1.9.18-2.88.18-2.17,0-3.67-.36-4.51-1.09s-1.26-2.04-1.26-3.95v-28.77c0-.85.23-1.51.7-1.97s1.11-.84,1.93-1.12c1.39-.49,3-.84,4.84-1.06,1.84-.22,3.8-.33,5.88-.33,5.64,0,9.89,1.18,12.75,3.55,2.86,2.37,4.29,5.53,4.29,9.5ZM174.01,163.4c1.72,0,3.13-.39,4.23-1.18,1.1-.79,1.66-1.95,1.66-3.49s-.5-2.7-1.5-3.49c-1-.79-2.58-1.18-4.75-1.18-.49,0-.95.02-1.38.06-.43.04-.87.1-1.32.18v9.11h3.06Z" fill="#008b3b"/><path d="M232.37,164.91c0,3.24-.49,6.07-1.47,8.5-.98,2.43-2.38,4.45-4.2,6.07-1.82,1.62-3.99,2.83-6.53,3.64-2.53.81-5.33,1.21-8.4,1.21-.7,0-1.49-.02-2.39-.06-.9-.04-1.83-.12-2.79-.24-.96-.12-1.92-.27-2.88-.46-.96-.18-1.85-.43-2.67-.76-2.25-.85-3.37-2.33-3.37-4.43v-28.35c0-.85.23-1.51.7-1.97s1.11-.84,1.93-1.12c1.76-.57,3.62-.94,5.58-1.12s3.72-.27,5.27-.27c3.19,0,6.08.39,8.67,1.15,2.59.77,4.82,1.95,6.68,3.55,1.86,1.6,3.3,3.61,4.32,6.04,1.02,2.43,1.53,5.3,1.53,8.62ZM221.33,165.1c0-3.64-.86-6.38-2.57-8.23-1.72-1.84-4.01-2.76-6.87-2.76-.57,0-1.15.02-1.75.06-.59.04-1.2.1-1.81.18v21.12c.45.08,1,.15,1.66.21.65.06,1.27.09,1.84.09,2.82,0,5.11-.89,6.86-2.67,1.76-1.78,2.64-4.45,2.64-8.01Z" fill="#008b3b"/><path d="M240.03,182.03c-1.02-1.01-1.53-2.39-1.53-4.13v-25.68c0-1.74.51-3.12,1.53-4.13s2.41-1.52,4.17-1.52h20.23c.29.45.54,1.01.77,1.7.22.69.34,1.46.34,2.31,0,1.5-.33,2.59-.98,3.28-.65.69-1.55,1.03-2.7,1.03h-12.93v5.65h13.79c.29.45.54,1.01.77,1.7.22.69.34,1.46.34,2.31,0,1.5-.33,2.58-.98,3.25-.65.67-1.55,1-2.7,1h-11.22v6.37h15.75c.29.45.54,1.03.77,1.76.22.73.34,1.52.34,2.37,0,1.5-.33,2.58-.98,3.25-.65.67-1.55,1-2.7,1h-17.9c-1.76,0-3.15-.51-4.17-1.52Z" fill="#008b3b"/><path d="M303.25,183.4c-1.08.3-2.38.46-3.89.46s-2.94-.22-4.29-.67-2.45-1.52-3.31-3.22l-6.07-12.26c-.61-1.25-1.16-2.44-1.65-3.55-.49-1.11-1.02-2.4-1.59-3.85l-.43.12c.2,2.55.32,4.91.34,7.07.02,2.17.03,4.24.03,6.22v9.65c-.45.08-1.12.18-2.02.3-.9.12-1.82.18-2.76.18-2.08,0-3.52-.35-4.32-1.06-.8-.71-1.2-1.97-1.2-3.79v-30.53c.57-.81,1.45-1.42,2.64-1.82,1.19-.4,2.45-.61,3.8-.61,1.51,0,2.95.23,4.32.7,1.37.47,2.46,1.53,3.28,3.19l6.13,12.26c.61,1.26,1.16,2.44,1.65,3.55.49,1.11,1.02,2.4,1.59,3.85l.24-.06c-.16-1.94-.26-3.77-.28-5.49-.02-1.72-.03-3.37-.03-4.95v-12.69c.45-.08,1.12-.18,2.02-.3.9-.12,1.82-.18,2.76-.18,2.08,0,3.52.35,4.32,1.06.8.71,1.2,1.97,1.2,3.79v31.32c-.57.57-1.4,1-2.48,1.31Z" fill="#008b3b"/><path d="M325.1,175.84c2,0,3.41-.32,4.23-.97.82-.65,1.23-1.38,1.23-2.19s-.33-1.45-.98-1.91c-.65-.46-1.57-.9-2.76-1.3l-2.57-.85c-1.8-.61-3.43-1.22-4.9-1.85-1.47-.63-2.74-1.39-3.8-2.28-1.06-.89-1.89-1.95-2.48-3.19-.59-1.23-.89-2.74-.89-4.52,0-3.44,1.34-6.19,4.02-8.26,2.68-2.06,6.42-3.1,11.25-3.1,1.76,0,3.39.12,4.9.36,1.51.24,2.81.62,3.89,1.12,1.08.51,1.93,1.15,2.54,1.94.61.79.92,1.71.92,2.76s-.24,1.95-.73,2.7c-.49.75-1.08,1.39-1.78,1.91-.9-.57-2.11-1.06-3.62-1.49-1.51-.43-3.17-.64-4.96-.64s-3.19.25-4.05.76c-.86.51-1.29,1.14-1.29,1.91,0,.61.27,1.1.8,1.49.53.39,1.33.74,2.39,1.06l3.25,1.03c3.84,1.21,6.79,2.78,8.86,4.7,2.06,1.92,3.1,4.5,3.1,7.74,0,1.7-.35,3.27-1.04,4.7-.7,1.44-1.73,2.67-3.1,3.7-1.37,1.03-3.06,1.83-5.09,2.4-2.02.57-4.34.85-6.96.85-1.88,0-3.63-.15-5.24-.46-1.61-.3-3.02-.75-4.23-1.34-1.21-.59-2.15-1.31-2.82-2.19-.67-.87-1.01-1.87-1.01-3s.35-2.17,1.04-3c.69-.83,1.45-1.47,2.27-1.91,1.14.89,2.54,1.66,4.2,2.31,1.65.65,3.46.97,5.42.97Z" fill="#008b3b"/><path d="M57.59,200.76v15.96c-.15.06-.36.12-.64.17-.28.05-.58.08-.89.08-.64,0-1.1-.12-1.37-.35-.27-.24-.41-.63-.41-1.19v-14.66h-5.52c-.1-.14-.19-.33-.27-.56-.07-.23-.11-.48-.11-.77,0-.45.11-.8.33-1.03.22-.24.51-.36.89-.36h13.56c.08.12.16.3.23.52.07.23.11.47.11.74,0,.97-.41,1.45-1.22,1.45h-4.71Z" fill="#008b3b"/><path d="M81.57,213.07c-.34.86-.84,1.61-1.5,2.22-.65.62-1.45,1.09-2.4,1.42s-2.03.49-3.26.49-2.28-.16-3.23-.49c-.95-.33-1.75-.8-2.4-1.42-.65-.62-1.15-1.36-1.5-2.22-.34-.86-.51-1.82-.51-2.87v-12.16c.14-.04.36-.09.65-.14.29-.05.59-.08.9-.08.6,0,1.05.11,1.34.34.29.23.44.63.44,1.2v10.65c0,1.46.41,2.57,1.23,3.33.82.76,1.84,1.14,3.07,1.14.62,0,1.19-.1,1.71-.29.52-.2.98-.48,1.37-.85.39-.37.7-.83.92-1.39.22-.56.33-1.2.33-1.94v-11.97c.15-.04.36-.09.65-.14.29-.05.59-.08.9-.08.6,0,1.05.11,1.34.34.29.23.44.63.44,1.2v10.83c0,1.05-.17,2.01-.51,2.87Z" fill="#008b3b"/><path d="M89.89,216.89c-.28.05-.58.08-.89.08-.64,0-1.11-.12-1.39-.35-.28-.24-.42-.63-.42-1.19v-17.38c.17-.04.39-.09.67-.14.28-.05.58-.08.89-.08.6,0,1.05.11,1.34.34.29.23.44.63.44,1.2v17.35c-.15.06-.36.12-.64.17Z" fill="#008b3b"/><path d="M110.44,216.81c-.35.12-.77.18-1.25.18-.58,0-1.09-.11-1.51-.32-.43-.22-.82-.62-1.17-1.22l-5.14-8.86c-.23-.39-.46-.8-.7-1.23s-.47-.86-.69-1.3-.43-.85-.62-1.25c-.2-.4-.37-.76-.51-1.07l-.16.03c.1,1.07.18,2.22.22,3.44.04,1.22.06,2.38.06,3.47v8.06c-.15.04-.36.09-.64.14-.28.05-.57.08-.86.08-.62,0-1.08-.11-1.36-.34s-.42-.61-.42-1.14v-16.91c.21-.23.5-.41.89-.54.38-.13.79-.2,1.23-.2.58,0,1.09.1,1.53.31.44.21.83.61,1.18,1.2l5.17,8.89c.23.39.46.8.69,1.23.23.43.45.86.67,1.3s.43.85.62,1.25c.2.4.37.76.51,1.06l.12-.03c-.17-1.56-.26-3.11-.28-4.64-.02-1.53-.03-3.03-.03-4.49v-5.86c.17-.04.38-.09.65-.14.27-.05.56-.08.87-.08.62,0,1.08.11,1.36.34.28.23.42.61.42,1.14v17.04c-.23.19-.52.34-.87.46Z" fill="#008b3b"/><path d="M133.91,207.4c0,1.61-.23,3.02-.7,4.24-.47,1.22-1.12,2.25-1.95,3.07-.83.82-1.81,1.45-2.93,1.87s-2.35.63-3.68.63-2.56-.21-3.69-.63c-1.13-.42-2.11-1.04-2.93-1.87-.82-.82-1.46-1.85-1.93-3.07-.47-1.22-.7-2.64-.7-4.24s.24-3.01.72-4.23c.48-1.21,1.13-2.24,1.96-3.07.83-.83,1.81-1.46,2.95-1.88,1.13-.42,2.34-.63,3.63-.63s2.52.21,3.65.63c1.12.42,2.1,1.05,2.93,1.88.83.83,1.49,1.86,1.96,3.07.48,1.21.72,2.62.72,4.23ZM130.51,207.4c0-2.3-.53-4.06-1.59-5.26-1.06-1.2-2.48-1.81-4.27-1.81s-3.15.61-4.22,1.82c-1.07,1.21-1.61,2.96-1.61,5.25s.53,4.06,1.59,5.28c1.06,1.21,2.47,1.82,4.24,1.82s3.21-.61,4.27-1.82,1.59-2.97,1.59-5.28Z" fill="#008b3b"/><path d="M152.77,216.81c-.35.12-.77.18-1.25.18-.58,0-1.09-.11-1.51-.32-.43-.22-.82-.62-1.17-1.22l-5.14-8.86c-.23-.39-.46-.8-.7-1.23s-.47-.86-.69-1.3-.43-.85-.62-1.25c-.2-.4-.37-.76-.51-1.07l-.16.03c.1,1.07.18,2.22.22,3.44.04,1.22.06,2.38.06,3.47v8.06c-.15.04-.36.09-.64.14-.28.05-.57.08-.86.08-.62,0-1.08-.11-1.36-.34s-.42-.61-.42-1.14v-16.91c.21-.23.5-.41.89-.54.38-.13.79-.2,1.23-.2.58,0,1.09.1,1.53.31.44.21.83.61,1.18,1.2l5.17,8.89c.23.39.46.8.69,1.23.23.43.45.86.67,1.3s.43.85.62,1.25c.2.4.37.76.51,1.06l.12-.03c-.17-1.56-.26-3.11-.28-4.64-.02-1.53-.03-3.03-.03-4.49v-5.86c.17-.04.38-.09.65-.14.27-.05.56-.08.87-.08.62,0,1.08.11,1.36.34.28.23.42.61.42,1.14v17.04c-.23.19-.52.34-.87.46Z" fill="#008b3b"/><path d="M175.11,207.24c0,1.67-.24,3.12-.72,4.37-.48,1.25-1.16,2.28-2.04,3.1-.88.82-1.95,1.44-3.19,1.84s-2.63.6-4.14.6c-.67,0-1.44-.03-2.34-.09-.89-.06-1.72-.22-2.49-.46-.96-.31-1.43-.86-1.43-1.67v-15.46c0-.35.1-.62.3-.82.2-.2.47-.34.83-.45.73-.23,1.52-.37,2.37-.45.85-.07,1.68-.11,2.49-.11,1.54,0,2.95.2,4.22.59s2.37.99,3.29,1.79c.91.8,1.62,1.81,2.12,3.01.5,1.2.75,2.61.75,4.21ZM171.68,207.27c0-1.21-.18-2.26-.53-3.13-.35-.87-.84-1.59-1.46-2.14s-1.35-.97-2.18-1.23c-.83-.27-1.72-.4-2.68-.4-1.1,0-2.02.07-2.74.22v13.61c.42.1.88.17,1.39.2.51.03,1.02.05,1.54.05,2.16,0,3.81-.6,4.96-1.81,1.14-1.2,1.71-2.99,1.71-5.35Z" fill="#008b3b"/><path d="M179.69,216.32c-.33-.33-.5-.76-.5-1.3v-15.22c0-.53.17-.96.5-1.28.33-.32.77-.48,1.31-.48h10.32c.1.12.19.3.26.52.07.23.11.47.11.74,0,.45-.11.8-.33,1.05-.22.25-.51.37-.89.37h-7.98v5.12h7.88c.1.12.19.3.26.52s.11.47.11.74c0,.47-.11.82-.33,1.05s-.51.34-.89.34h-7.04v5.62h8.98c.08.12.17.3.25.52.08.23.12.47.12.74,0,.47-.11.83-.33,1.06-.22.24-.51.36-.89.36h-9.63c-.54,0-.98-.16-1.31-.49Z" fill="#008b3b"/><path d="M199.26,216.72c-.17.06-.39.12-.65.17-.27.05-.57.08-.9.08-.64,0-1.11-.12-1.39-.35-.28-.24-.42-.63-.42-1.19v-15.93c0-.35.1-.62.3-.82.2-.2.47-.34.83-.45.64-.23,1.41-.38,2.31-.46.89-.08,1.79-.12,2.68-.12,2.7,0,4.71.54,6.03,1.62,1.32,1.08,1.98,2.6,1.98,4.55,0,1.36-.36,2.52-1.07,3.47-.72.96-1.74,1.67-3.07,2.14.5.62.99,1.23,1.47,1.84.48.61.93,1.18,1.36,1.73.42.54.81,1.04,1.15,1.48.34.44.62.81.83,1.1-.1.47-.33.83-.69,1.08-.35.25-.74.37-1.15.37-.5,0-.89-.12-1.18-.35-.29-.24-.58-.56-.87-.97l-4.02-5.74h-3.49v6.76ZM202.25,207.3c1.35,0,2.42-.29,3.21-.86.79-.58,1.18-1.45,1.18-2.62s-.4-2.02-1.2-2.59c-.8-.58-1.98-.86-3.54-.86-.48,0-.95.02-1.42.06-.47.04-.89.09-1.26.15v6.73h3.02Z" fill="#008b3b"/><path d="M227.12,197.91c.29-.05.59-.08.9-.08.6,0,1.05.11,1.36.34.3.23.45.63.45,1.2v17.35c-.17.06-.39.12-.67.17-.28.05-.58.08-.89.08-.64,0-1.11-.12-1.39-.35-.28-.24-.42-.63-.42-1.19v-6.76h-8.7v8.06c-.17.06-.38.12-.65.17-.27.05-.57.08-.9.08-.64,0-1.11-.12-1.39-.35-.28-.24-.42-.63-.42-1.19v-17.38c.17-.04.39-.09.67-.14.28-.05.58-.08.89-.08.6,0,1.05.11,1.36.34.3.23.45.63.45,1.2v6.61h8.7v-7.93c.14-.04.36-.09.65-.14Z" fill="#008b3b"/><path d="M252.43,207.4c0,1.61-.23,3.02-.7,4.24-.47,1.22-1.12,2.25-1.95,3.07-.83.82-1.81,1.45-2.93,1.87-1.12.42-2.35.63-3.68.63s-2.56-.21-3.69-.63-2.11-1.04-2.93-1.87c-.82-.82-1.46-1.85-1.93-3.07-.47-1.22-.7-2.64-.7-4.24s.24-3.01.72-4.23,1.13-2.24,1.96-3.07c.83-.83,1.81-1.46,2.95-1.88,1.13-.42,2.34-.63,3.63-.63s2.52.21,3.65.63c1.12.42,2.1,1.05,2.93,1.88.83.83,1.49,1.86,1.96,3.07s.72,2.62.72,4.23ZM249.03,207.4c0-2.3-.53-4.06-1.59-5.26-1.06-1.2-2.48-1.81-4.27-1.81s-3.15.61-4.22,1.82c-1.07,1.21-1.6,2.96-1.6,5.25s.53,4.06,1.59,5.28,2.47,1.82,4.24,1.82,3.21-.61,4.27-1.82c1.06-1.21,1.59-2.97,1.59-5.28Z" fill="#008b3b"/><path d="M271.3,213.07c-.34.86-.84,1.61-1.5,2.22-.65.62-1.45,1.09-2.4,1.42-.95.33-2.03.49-3.26.49s-2.28-.16-3.23-.49c-.95-.33-1.75-.8-2.4-1.42-.65-.62-1.15-1.36-1.5-2.22-.34-.86-.51-1.82-.51-2.87v-12.16c.14-.04.36-.09.65-.14.29-.05.59-.08.9-.08.6,0,1.05.11,1.34.34.29.23.44.63.44,1.2v10.65c0,1.46.41,2.57,1.23,3.33s1.84,1.14,3.07,1.14c.62,0,1.2-.1,1.71-.29.52-.2.98-.48,1.37-.85.39-.37.7-.83.92-1.39.22-.56.33-1.2.33-1.94v-11.97c.14-.04.36-.09.65-.14s.59-.08.9-.08c.6,0,1.05.11,1.34.34.29.23.44.63.44,1.2v10.83c0,1.05-.17,2.01-.51,2.87Z" fill="#008b3b"/><path d="M293.25,207.24c0,1.67-.24,3.12-.72,4.37-.48,1.25-1.16,2.28-2.04,3.1-.88.82-1.95,1.44-3.19,1.84s-2.63.6-4.14.6c-.67,0-1.44-.03-2.34-.09-.89-.06-1.72-.22-2.49-.46-.96-.31-1.43-.86-1.43-1.67v-15.46c0-.35.1-.62.3-.82.2-.2.47-.34.83-.45.73-.23,1.52-.37,2.37-.45.85-.07,1.68-.11,2.49-.11,1.54,0,2.95.2,4.22.59,1.28.39,2.37.99,3.29,1.79.91.8,1.62,1.81,2.12,3.01.5,1.2.75,2.61.75,4.21ZM289.83,207.27c0-1.21-.18-2.26-.53-3.13-.35-.87-.84-1.59-1.47-2.14-.62-.56-1.35-.97-2.18-1.23-.83-.27-1.73-.4-2.68-.4-1.1,0-2.02.07-2.74.22v13.61c.42.1.88.17,1.39.2.51.03,1.02.05,1.54.05,2.16,0,3.81-.6,4.95-1.81,1.14-1.2,1.71-2.99,1.71-5.35Z" fill="#008b3b"/></g></svg>